<?xml version="1.0" standalone="no"?>
<!DOCTYPE svg PUBLIC "-//W3C//DTD SVG 20010904//EN"
 "http://www.w3.org/TR/2001/REC-SVG-20010904/DTD/svg10.dtd">
<svg version="1.0" xmlns="http://www.w3.org/2000/svg"
 width="240.000000pt" height="240.000000pt" viewBox="0 0 240.000000 240.000000"
 preserveAspectRatio="xMidYMid meet">
<metadata>
Created by potrace 1.14, written by Peter Selinger 2001-2017
</metadata>
<g transform="translate(0.000000,240.000000) scale(0.100000,-0.100000)"
fill="#000000" stroke="none">
<path d="M2265 1859 c-3 -4 2 -6 10 -5 21 3 28 13 10 13 -9 0 -18 -4 -20 -8z"/>
<path d="M2195 1848 c-16 -5 -48 -11 -70 -14 -22 -3 -47 -8 -55 -11 -8 -3 -24
-7 -35 -8 -30 -5 -377 -95 -400 -105 -34 -15 -100 -34 -107 -32 -5 1 -8 -2 -8
-6 0 -4 -8 -8 -17 -9 -10 -1 -40 -11 -66 -22 -27 -12 -52 -21 -56 -21 -5 0
-37 28 -72 63 -47 47 -76 66 -110 76 -84 23 -84 23 -84 -119 l0 -125 -63 -32
c-75 -39 -82 -40 -82 -9 0 55 -54 155 -112 208 -18 17 -58 42 -88 57 -55 26
-56 26 -337 29 l-282 3 1 -23 c1 -13 6 -29 11 -35 5 -7 7 -13 3 -13 -15 0 36
-80 70 -110 64 -55 94 -63 254 -66 80 -1 156 -5 170 -9 27 -7 60 -54 60 -87 0
-34 -45 -85 -77 -87 -15 -1 -130 -2 -255 -3 -126 0 -229 -4 -230 -7 0 -3 -2
-107 -3 -231 -2 -157 -6 -234 -15 -255 -8 -16 -14 -33 -15 -37 -2 -5 -3 -9 -5
-10 -17 -22 -16 -156 2 -174 12 -13 17 -9 38 28 13 24 32 50 42 59 10 9 18 19
18 22 0 4 43 48 95 99 104 102 125 121 125 114 0 -3 19 13 43 34 23 22 48 40
55 40 6 0 12 4 12 8 0 4 15 16 32 27 18 10 35 21 38 24 11 13 101 71 110 71 6
0 10 4 10 8 0 4 15 16 32 27 18 10 35 21 38 25 6 7 66 43 150 88 36 20 67 39
70 42 3 4 15 10 28 14 12 4 22 12 22 17 0 5 6 9 14 9 7 0 34 11 60 25 26 14
53 25 61 25 7 0 15 4 17 8 7 17 402 202 463 216 10 3 19 7 113 45 26 11 106
39 177 62 72 23 144 47 161 55 18 7 48 16 68 19 20 4 36 10 36 14 0 10 -18 9
-55 -1z"/>
<path d="M2142 1744 c-31 -15 -68 -45 -90 -72 -20 -26 -42 -51 -48 -57 -6 -5
-33 -37 -60 -70 -27 -33 -51 -62 -54 -65 -3 -3 -20 -23 -38 -45 -36 -43 -102
-121 -142 -168 l-26 -29 -34 44 c-32 41 -96 117 -160 191 l-25 29 -60 -28
c-33 -15 -62 -28 -65 -28 -30 -7 -206 -109 -220 -128 -5 -7 -5 -443 0 -443 1
0 3 -12 4 -26 5 -54 67 -133 129 -166 44 -22 101 -32 114 -20 2 3 4 131 4 286
0 155 3 281 7 281 4 0 14 -9 22 -21 8 -11 24 -31 35 -44 11 -12 27 -31 35 -41
29 -37 105 -129 110 -134 3 -3 28 -33 55 -68 l50 -62 32 37 c31 37 59 70 133
163 19 24 46 56 60 71 14 16 36 44 50 64 14 19 30 35 36 35 7 0 10 -87 9 -277
0 -153 1 -283 3 -289 2 -8 14 -9 40 -3 20 5 45 11 54 14 42 10 122 95 138 147
11 33 14 146 15 496 l1 452 -31 0 c-17 0 -55 -12 -83 -26z"/>
<path d="M661 990 c-44 -39 -81 -76 -84 -83 -5 -15 155 -175 210 -210 56 -35
127 -48 188 -34 11 3 27 7 35 9 8 1 17 5 20 8 3 3 17 13 33 23 15 10 27 22 27
27 0 10 -167 180 -176 180 -2 0 -37 34 -77 75 -41 41 -79 75 -85 75 -6 0 -47
-32 -91 -70z"/>
<path d="M371 697 c-26 -29 -27 -44 -1 -42 24 2 30 7 35 33 6 31 -9 35 -34 9z"/>
</g>
</svg>
